<?xml version="1.0" encoding="UTF-8"?>
<svg id="Layer_1" data-name="Layer 1" xmlns="http://www.w3.org/2000/svg" viewBox="0 0 994.31 994.31">
  <defs>
    <style>
      .cls-1 {
        fill: #231f20;
      }

      .cls-1, .cls-2, .cls-3 {
        stroke-miterlimit: 10;
      }

      .cls-1, .cls-3 {
        stroke: #231f20;
      }

      .cls-2 {
        fill: none;
        stroke: #414042;
        stroke-width: 29px;
      }

      .cls-3 {
        fill: #414042;
      }
    </style>
  </defs>
  <circle class="cls-3" cx="497.16" cy="372.38" r="153.01"/>
  <path class="cls-3" d="m750.32,922.47c-7.07.63-8.15-10.36-1.63-12.08,4.47-1.18,8.9-2.54,13.28-4.05,13.61-7.91,22.8-25.92,32.4-36.72,6.28-7.07,14.58-12.87,22.04-18.63,7.79-6.02,15.87-11.79,24.63-16.33-30.88-161.8-173.09-284.1-343.88-284.1s-317.47,126.18-345.26,291.77c1.13-2.47,3.67-4.37,7.05-3.69,23.44,4.72,40.62,26.55,55.07,43.89,7.83,9.4,15.43,19.1,24.1,27.75,9.87,9.85,21.68,17.66,34.17,23.8,25.02,12.29,52.73,17.61,78.97,26.59,27.85,9.54,55.69,17.45,85.02,20.93,29.27,3.48,59.07,3.55,88.31-.33,14.49-1.93,28.87-4.88,42.94-8.83,13.53-3.79,26.55-9.08,40.07-12.89,31.25-8.82,64.24-12.49,96.29-19.16"/>
  <path class="cls-1" d="m790.78,893.96c2.39-1.23,4.76-2.5,7.11-3.81,1.51-4.07,3.04-8.11,5.26-11.98-4.4,4.74-8.11,10.24-12,15.32-.12.16-.24.31-.36.47Z"/>
  <circle class="cls-2" cx="497.16" cy="497.16" r="482.66"/>
</svg>