<svg id="Layer_1" data-name="Layer 1" xmlns="http://www.w3.org/2000/svg" viewBox="0 0 126.81 31.96"><defs><style>.cls-1{fill:#939598;opacity:0.7;}.cls-2{fill:#231f20;}</style></defs><rect class="cls-1" width="31.96" height="31.96" rx="8.26"/><path class="cls-2" d="M16,29.5A13.49,13.49,0,1,1,29.5,16,13.5,13.5,0,0,1,16,29.5ZM16,5A11.07,11.07,0,1,0,27.09,16,11.07,11.07,0,0,0,16,5Z" transform="translate(-0.04 -0.04)"/><polygon class="cls-2" points="7.08 18.61 7.07 15.21 16.06 6.22 24.98 15.13 24.98 18.55 16.06 9.63 7.08 18.61"/><polygon class="cls-2" points="7.08 24.57 5.38 22.86 16.06 12.18 26.59 22.7 24.88 24.41 16.06 15.59 7.08 24.57"/><path class="cls-2" d="M43.94,26.06A1.73,1.73,0,0,1,42,24.13V7.91a2,2,0,0,1,.5-1.44A2,2,0,0,1,43.94,6h5.53c3.37,0,6,.87,7.8,2.59S60,12.77,60,16a12.29,12.29,0,0,1-.7,4.29,8.24,8.24,0,0,1-2,3.15A8.89,8.89,0,0,1,54,25.39a13.72,13.72,0,0,1-4.49.67Zm1.71-3h3.59a9.43,9.43,0,0,0,3.07-.44,5.48,5.48,0,0,0,2.16-1.31,5.33,5.33,0,0,0,1.3-2.19A10,10,0,0,0,56.2,16a7.17,7.17,0,0,0-1.74-5.27A7.09,7.09,0,0,0,49.24,9H45.65Z" transform="translate(-0.04 -0.04)"/><path class="cls-2" d="M65.66,26.06a2,2,0,0,1-1.44-.49,2,2,0,0,1-.5-1.44V7.91a2,2,0,0,1,.5-1.44A2,2,0,0,1,65.66,6H75.84a1.48,1.48,0,0,1,1.09.37,1.4,1.4,0,0,1,.39,1.06,1.35,1.35,0,0,1-1.48,1.48H67.23v5.53h8a1.5,1.5,0,0,1,1.11.37,1.44,1.44,0,0,1,.37,1.08,1.43,1.43,0,0,1-.37,1.08,1.5,1.5,0,0,1-1.11.37h-8v5.85h8.61a1.48,1.48,0,0,1,1.09.37,1.41,1.41,0,0,1,.39,1.08,1.4,1.4,0,0,1-.39,1.08,1.48,1.48,0,0,1-1.09.37Z" transform="translate(-0.04 -0.04)"/><path class="cls-2" d="M82.59,26.06a1.82,1.82,0,0,1-1.37-.49,1.94,1.94,0,0,1-.48-1.39V7.74a1.83,1.83,0,0,1,.47-1.38,2.17,2.17,0,0,1,2.7,0,1.83,1.83,0,0,1,.47,1.38V23h8.27a1.61,1.61,0,0,1,1.18.4,1.48,1.48,0,0,1,.42,1.14,1.53,1.53,0,0,1-.42,1.15,1.57,1.57,0,0,1-1.18.41Z" transform="translate(-0.04 -0.04)"/><path class="cls-2" d="M99.72,26.29a1.77,1.77,0,0,1-1.36-.5,1.94,1.94,0,0,1-.47-1.38V9H92.34a1.59,1.59,0,0,1-1.16-.41,1.55,1.55,0,0,1-.41-1.13,1.47,1.47,0,0,1,.41-1.12A1.63,1.63,0,0,1,92.34,6H107.1a1.6,1.6,0,0,1,1.15.39,1.43,1.43,0,0,1,.42,1.12,1.52,1.52,0,0,1-.42,1.13A1.57,1.57,0,0,1,107.1,9h-5.56V24.41a2,2,0,0,1-.45,1.38A1.75,1.75,0,0,1,99.72,26.29Z" transform="translate(-0.04 -0.04)"/><path class="cls-2" d="M108.72,26.29a1.74,1.74,0,0,1-1.09-.31,1.27,1.27,0,0,1-.5-.84,2.08,2.08,0,0,1,.2-1.18l7.52-16.68a2.77,2.77,0,0,1,.9-1.18A2.08,2.08,0,0,1,117,5.74a2,2,0,0,1,1.18.36,2.7,2.7,0,0,1,.9,1.18L126.59,24a2,2,0,0,1,.23,1.19,1.28,1.28,0,0,1-.48.84,1.73,1.73,0,0,1-1.06.3,1.87,1.87,0,0,1-1.24-.38,3.32,3.32,0,0,1-.78-1.19l-1.85-4.3,1.54,1h-12l1.54-1-1.83,4.3a3.5,3.5,0,0,1-.77,1.2A1.58,1.58,0,0,1,108.72,26.29ZM116.9,9.93l-4,9.49-.74-.91h9.52l-.71.91-4-9.49Z" transform="translate(-0.04 -0.04)"/></svg>