<svg id="Layer_1" data-name="Layer 1" xmlns="http://www.w3.org/2000/svg" viewBox="0 0 31.96 31.96"><defs><style>.cls-1{fill:#be1e2d;opacity:0.75;}.cls-2{fill:#fff;}</style></defs><rect class="cls-1" width="31.96" height="31.96" rx="8.26"/><path class="cls-2" d="M16,29.5A13.49,13.49,0,1,1,29.5,16,13.5,13.5,0,0,1,16,29.5ZM16,5A11.07,11.07,0,1,0,27.09,16,11.07,11.07,0,0,0,16,5Z" transform="translate(-0.04 -0.04)"/><polygon class="cls-2" points="7.08 18.61 7.07 15.21 16.06 6.22 24.98 15.13 24.98 18.55 16.06 9.63 7.08 18.61"/><polygon class="cls-2" points="7.08 24.57 5.38 22.86 16.06 12.18 26.59 22.7 24.88 24.41 16.06 15.59 7.08 24.57"/></svg>